<mxfile host="app.diagrams.net" agent="Mozilla/5.0 (X11; Ubuntu; Linux x86_64; rv:136.0) Gecko/20100101 Firefox/136.0" version="26.1.1">
  <diagram name="Page-1" id="bvPBSzS-I180N1wVtlMe">
    <mxGraphModel dx="1602" dy="795" grid="1" gridSize="10" guides="1" tooltips="1" connect="1" arrows="1" fold="1" page="1" pageScale="1" pageWidth="827" pageHeight="1169" math="0" shadow="0">
      <root>
        <mxCell id="0" />
        <mxCell id="1" parent="0" />
        <mxCell id="tnOevVP8kK06ffzw8B7S-18" value="" style="shape=flexArrow;endArrow=classic;html=1;rounded=0;exitX=1;exitY=0.5;exitDx=0;exitDy=0;exitPerimeter=0;entryX=0;entryY=0.5;entryDx=0;entryDy=0;entryPerimeter=0;" parent="1" source="tnOevVP8kK06ffzw8B7S-8" target="tnOevVP8kK06ffzw8B7S-13" edge="1">
          <mxGeometry width="50" height="50" relative="1" as="geometry">
            <mxPoint x="120" y="720" as="sourcePoint" />
            <mxPoint x="370" y="420" as="targetPoint" />
          </mxGeometry>
        </mxCell>
        <mxCell id="tnOevVP8kK06ffzw8B7S-19" value="Web scraping" style="edgeLabel;html=1;align=center;verticalAlign=middle;resizable=0;points=[];" parent="tnOevVP8kK06ffzw8B7S-18" vertex="1" connectable="0">
          <mxGeometry x="-0.1243" y="4" relative="1" as="geometry">
            <mxPoint x="-29" y="6" as="offset" />
          </mxGeometry>
        </mxCell>
        <mxCell id="tnOevVP8kK06ffzw8B7S-23" value="" style="shape=flexArrow;endArrow=classic;html=1;rounded=0;exitX=1;exitY=0.5;exitDx=0;exitDy=0;exitPerimeter=0;entryX=0;entryY=0.5;entryDx=0;entryDy=0;entryPerimeter=0;" parent="1" source="tnOevVP8kK06ffzw8B7S-6" target="tnOevVP8kK06ffzw8B7S-13" edge="1">
          <mxGeometry width="50" height="50" relative="1" as="geometry">
            <mxPoint x="120" y="810" as="sourcePoint" />
            <mxPoint x="370" y="678" as="targetPoint" />
          </mxGeometry>
        </mxCell>
        <mxCell id="tnOevVP8kK06ffzw8B7S-24" value="Web scraping" style="edgeLabel;html=1;align=center;verticalAlign=middle;resizable=0;points=[];" parent="tnOevVP8kK06ffzw8B7S-23" vertex="1" connectable="0">
          <mxGeometry x="-0.1243" y="4" relative="1" as="geometry">
            <mxPoint x="-30" y="-4" as="offset" />
          </mxGeometry>
        </mxCell>
        <mxCell id="tnOevVP8kK06ffzw8B7S-3" value="&lt;div&gt;Linkedin&lt;/div&gt;&lt;span style=&quot;color: rgb(0, 127, 255);&quot;&gt;&lt;span style=&quot;color: rgb(0, 0, 204);&quot;&gt;(API)&lt;/span&gt;&lt;/span&gt;" style="shape=cylinder3;whiteSpace=wrap;html=1;boundedLbl=1;backgroundOutline=1;size=15;" parent="1" vertex="1">
          <mxGeometry x="50" y="110" width="60" height="80" as="geometry" />
        </mxCell>
        <mxCell id="tnOevVP8kK06ffzw8B7S-5" value="OFGL" style="shape=cylinder3;whiteSpace=wrap;html=1;boundedLbl=1;backgroundOutline=1;size=15;" parent="1" vertex="1">
          <mxGeometry x="50" y="400" width="60" height="80" as="geometry" />
        </mxCell>
        <mxCell id="tnOevVP8kK06ffzw8B7S-6" value="&lt;div&gt;Insee&lt;/div&gt;&lt;div&gt;&lt;span style=&quot;color: rgb(0, 127, 255);&quot;&gt;&lt;span style=&quot;color: rgb(0, 0, 204);&quot;&gt;(API)&lt;/span&gt;&lt;/span&gt;&lt;/div&gt;" style="shape=cylinder3;whiteSpace=wrap;html=1;boundedLbl=1;backgroundOutline=1;size=15;" parent="1" vertex="1">
          <mxGeometry x="50" y="220" width="60" height="80" as="geometry" />
        </mxCell>
        <mxCell id="tnOevVP8kK06ffzw8B7S-8" value="&lt;div&gt;Banatic&lt;/div&gt;&lt;div&gt;&lt;span style=&quot;color: rgb(0, 127, 255);&quot;&gt;&lt;span style=&quot;color: rgb(0, 0, 204);&quot;&gt;(API)&lt;/span&gt;&lt;/span&gt;&lt;/div&gt;" style="shape=cylinder3;whiteSpace=wrap;html=1;boundedLbl=1;backgroundOutline=1;size=15;" parent="1" vertex="1">
          <mxGeometry x="50" y="310" width="60" height="80" as="geometry" />
        </mxCell>
        <mxCell id="tnOevVP8kK06ffzw8B7S-7" value="&lt;div&gt;Site des mairies (DOB et ROB)&lt;/div&gt;" style="shape=cylinder3;whiteSpace=wrap;html=1;boundedLbl=1;backgroundOutline=1;size=15;" parent="1" vertex="1">
          <mxGeometry x="50" y="520" width="70" height="100" as="geometry" />
        </mxCell>
        <mxCell id="tnOevVP8kK06ffzw8B7S-11" value="S3" style="shape=cylinder3;whiteSpace=wrap;html=1;boundedLbl=1;backgroundOutline=1;size=15;" parent="1" vertex="1">
          <mxGeometry x="450" y="510" width="90" height="100" as="geometry" />
        </mxCell>
        <mxCell id="tnOevVP8kK06ffzw8B7S-13" value="Fiches client en local" style="shape=cylinder3;whiteSpace=wrap;html=1;boundedLbl=1;backgroundOutline=1;size=15;" parent="1" vertex="1">
          <mxGeometry x="600" y="330" width="90" height="100" as="geometry" />
        </mxCell>
        <mxCell id="tnOevVP8kK06ffzw8B7S-16" value="" style="shape=flexArrow;endArrow=classic;html=1;rounded=0;exitX=1;exitY=0;exitDx=0;exitDy=52.5;exitPerimeter=0;entryX=-0.022;entryY=0.59;entryDx=0;entryDy=0;entryPerimeter=0;" parent="1" source="tnOevVP8kK06ffzw8B7S-7" target="tnOevVP8kK06ffzw8B7S-11" edge="1">
          <mxGeometry width="50" height="50" relative="1" as="geometry">
            <mxPoint x="110" y="550" as="sourcePoint" />
            <mxPoint x="450" y="540" as="targetPoint" />
          </mxGeometry>
        </mxCell>
        <mxCell id="tnOevVP8kK06ffzw8B7S-17" value="Google dorking &amp;amp;&lt;div&gt;Web scraping&lt;/div&gt;" style="edgeLabel;html=1;align=center;verticalAlign=middle;resizable=0;points=[];" parent="tnOevVP8kK06ffzw8B7S-16" vertex="1" connectable="0">
          <mxGeometry x="-0.1243" y="4" relative="1" as="geometry">
            <mxPoint as="offset" />
          </mxGeometry>
        </mxCell>
        <mxCell id="tnOevVP8kK06ffzw8B7S-27" value="" style="shape=flexArrow;endArrow=classic;html=1;rounded=0;exitX=1;exitY=0.5;exitDx=0;exitDy=0;exitPerimeter=0;entryX=0;entryY=0.5;entryDx=0;entryDy=0;entryPerimeter=0;" parent="1" source="tnOevVP8kK06ffzw8B7S-3" target="tnOevVP8kK06ffzw8B7S-13" edge="1">
          <mxGeometry width="50" height="50" relative="1" as="geometry">
            <mxPoint x="170" y="240" as="sourcePoint" />
            <mxPoint x="420" y="230" as="targetPoint" />
          </mxGeometry>
        </mxCell>
        <mxCell id="tnOevVP8kK06ffzw8B7S-28" value="Web scraping &amp;amp; GenAI" style="edgeLabel;html=1;align=center;verticalAlign=middle;resizable=0;points=[];" parent="tnOevVP8kK06ffzw8B7S-27" vertex="1" connectable="0">
          <mxGeometry x="-0.1243" y="4" relative="1" as="geometry">
            <mxPoint x="-3" y="-23" as="offset" />
          </mxGeometry>
        </mxCell>
        <mxCell id="tnOevVP8kK06ffzw8B7S-31" value="" style="shape=flexArrow;endArrow=classic;html=1;rounded=0;exitX=1;exitY=0;exitDx=0;exitDy=52.5;exitPerimeter=0;" parent="1" source="tnOevVP8kK06ffzw8B7S-5" edge="1">
          <mxGeometry width="50" height="50" relative="1" as="geometry">
            <mxPoint x="170" y="410" as="sourcePoint" />
            <mxPoint x="600" y="380" as="targetPoint" />
          </mxGeometry>
        </mxCell>
        <mxCell id="tnOevVP8kK06ffzw8B7S-32" value="API" style="edgeLabel;html=1;align=center;verticalAlign=middle;resizable=0;points=[];" parent="tnOevVP8kK06ffzw8B7S-31" vertex="1" connectable="0">
          <mxGeometry x="-0.1243" y="4" relative="1" as="geometry">
            <mxPoint x="-22" y="3" as="offset" />
          </mxGeometry>
        </mxCell>
        <mxCell id="tnOevVP8kK06ffzw8B7S-33" value="" style="shape=flexArrow;endArrow=classic;html=1;rounded=0;exitX=1;exitY=0.5;exitDx=0;exitDy=0;exitPerimeter=0;entryX=0.022;entryY=0.433;entryDx=0;entryDy=0;entryPerimeter=0;" parent="1" source="tnOevVP8kK06ffzw8B7S-11" target="tnOevVP8kK06ffzw8B7S-35" edge="1">
          <mxGeometry width="50" height="50" relative="1" as="geometry">
            <mxPoint x="460" y="529.5" as="sourcePoint" />
            <mxPoint x="680" y="520" as="targetPoint" />
          </mxGeometry>
        </mxCell>
        <mxCell id="tnOevVP8kK06ffzw8B7S-35" value="Agents et RAG" style="whiteSpace=wrap;html=1;aspect=fixed;" parent="1" vertex="1">
          <mxGeometry x="600" y="520" width="90" height="90" as="geometry" />
        </mxCell>
        <mxCell id="tnOevVP8kK06ffzw8B7S-37" value="Frontend (streamlit)" style="rounded=0;whiteSpace=wrap;html=1;" parent="1" vertex="1">
          <mxGeometry x="800" y="350" width="120" height="60" as="geometry" />
        </mxCell>
        <mxCell id="tnOevVP8kK06ffzw8B7S-38" value="" style="shape=flexArrow;endArrow=classic;html=1;rounded=0;exitX=1;exitY=0.5;exitDx=0;exitDy=0;entryX=0;entryY=0.5;entryDx=0;entryDy=0;exitPerimeter=0;" parent="1" source="tnOevVP8kK06ffzw8B7S-13" target="tnOevVP8kK06ffzw8B7S-37" edge="1">
          <mxGeometry width="50" height="50" relative="1" as="geometry">
            <mxPoint x="655" y="490" as="sourcePoint" />
            <mxPoint x="655" y="440" as="targetPoint" />
          </mxGeometry>
        </mxCell>
        <mxCell id="tnOevVP8kK06ffzw8B7S-55" value="&lt;div&gt;Inputs SFIL&lt;/div&gt;&lt;div&gt;(API)&lt;/div&gt;" style="shape=cylinder3;whiteSpace=wrap;html=1;boundedLbl=1;backgroundOutline=1;size=15;fillColor=#dae8fc;strokeColor=#6c8ebf;" parent="1" vertex="1">
          <mxGeometry x="50" y="680" width="60" height="80" as="geometry" />
        </mxCell>
        <mxCell id="sa8_6igTQwt5S1ZCZlk3-1" value="" style="shape=flexArrow;endArrow=classic;html=1;rounded=0;entryX=0.5;entryY=1;entryDx=0;entryDy=0;entryPerimeter=0;exitX=0.5;exitY=0;exitDx=0;exitDy=0;" parent="1" source="tnOevVP8kK06ffzw8B7S-35" target="tnOevVP8kK06ffzw8B7S-13" edge="1">
          <mxGeometry width="50" height="50" relative="1" as="geometry">
            <mxPoint x="640" y="500" as="sourcePoint" />
            <mxPoint x="690" y="450" as="targetPoint" />
          </mxGeometry>
        </mxCell>
        <mxCell id="aVtLV52ZhwdJQR3-G4ui-1" value="&lt;div&gt;France Marches&lt;/div&gt;&lt;div&gt;(API)&lt;/div&gt;" style="shape=cylinder3;whiteSpace=wrap;html=1;boundedLbl=1;backgroundOutline=1;size=15;fillColor=#dae8fc;strokeColor=#6c8ebf;" vertex="1" parent="1">
          <mxGeometry x="50" y="800" width="60" height="80" as="geometry" />
        </mxCell>
      </root>
    </mxGraphModel>
  </diagram>
</mxfile>
